<svg xmlns="http://www.w3.org/2000/svg" x="0px" y="0px" width="100" height="100" viewBox="0 0 100 100">
<path d="M21.5,93C13.505,93,7,86.495,7,78.5v-46C7,24.505,13.505,18,21.5,18H28c0-8.822,7.178-16,16-16 s16,7.178,16,16h7.5C75.495,18,82,24.505,82,32.5V39c8.822,0,16,7.178,16,16s-7.178,16-16,16v7.5C82,86.495,75.495,93,67.5,93H21.5 z" opacity=".35"></path><path fill="#f2f2f2" d="M19.5,91C11.505,91,5,84.495,5,76.5v-46C5,22.505,11.505,16,19.5,16H26c0-8.822,7.178-16,16-16 s16,7.178,16,16h7.5C73.495,16,80,22.505,80,30.5V37c8.822,0,16,7.178,16,16s-7.178,16-16,16v7.5C80,84.495,73.495,91,65.5,91H19.5 z"></path><path fill="#96c362" d="M80,43.5c-2.518,0-4.8,0.986-6.5,2.585V30.5c0-4.418-3.582-8-8-8H48.915 c1.599-1.7,2.585-3.982,2.585-6.5c0-5.247-4.253-9.5-9.5-9.5s-9.5,4.253-9.5,9.5c0,2.518,0.986,4.8,2.585,6.5H19.5 c-4.418,0-8,3.582-8,8v15.585c1.7-1.599,3.982-2.585,6.5-2.585c5.247,0,9.5,4.253,9.5,9.5s-4.253,9.5-9.5,9.5 c-2.518,0-4.8-0.986-6.5-2.585V76.5c0,4.418,3.582,8,8,8h15.585C33.486,82.8,32.5,80.518,32.5,78c0-5.247,4.253-9.5,9.5-9.5 s9.5,4.253,9.5,9.5c0,2.518-0.986,4.8-2.585,6.5H65.5c4.418,0,8-3.582,8-8V59.915c1.7,1.599,3.982,2.585,6.5,2.585 c5.247,0,9.5-4.253,9.5-9.5S85.247,43.5,80,43.5z"></path><path fill="none" stroke="#40396e" stroke-linecap="round" stroke-linejoin="round" stroke-miterlimit="10" stroke-width="3" d="M80,43.5c-2.518,0-4.8,0.986-6.5,2.585V30.5c0-4.418-3.582-8-8-8H48.915c1.599-1.7,2.585-3.982,2.585-6.5 c0-5.247-4.253-9.5-9.5-9.5s-9.5,4.253-9.5,9.5c0,2.518,0.986,4.8,2.585,6.5H19.5c-4.418,0-8,3.582-8,8v15.585 c1.7-1.599,3.982-2.585,6.5-2.585c5.247,0,9.5,4.253,9.5,9.5s-4.253,9.5-9.5,9.5c-2.518,0-4.8-0.986-6.5-2.585V76.5 c0,4.418,3.582,8,8,8h15.585C33.486,82.8,32.5,80.518,32.5,78c0-5.247,4.253-9.5,9.5-9.5s9.5,4.253,9.5,9.5 c0,2.518-0.986,4.8-2.585,6.5H65.5c4.418,0,8-3.582,8-8V59.915c1.7,1.599,3.982,2.585,6.5,2.585c5.247,0,9.5-4.253,9.5-9.5 S85.247,43.5,80,43.5z"></path>
</svg>